<?xml version="1.0" encoding="utf-8"?>
<!-- Generator: Adobe Illustrator 16.0.0, SVG Export Plug-In . SVG Version: 6.00 Build 0)  -->
<!DOCTYPE svg PUBLIC "-//W3C//DTD SVG 1.1//EN" "http://www.w3.org/Graphics/SVG/1.1/DTD/svg11.dtd">
<svg version="1.1" id="Layer_1" xmlns="http://www.w3.org/2000/svg" xmlns:xlink="http://www.w3.org/1999/xlink" x="0px" y="0px"
	 width="444.219px" height="444.219px" viewBox="0 0 444.219 444.219" enable-background="new 0 0 444.219 444.219"
	 xml:space="preserve">
<path fill="#D53132" d="M871.996,1012.55l177.571-177.572c3.663-3.663,5.495-8.001,5.495-13.014s-1.832-9.351-5.495-13.014
	l-29.498-29.499c-3.664-3.663-8.002-5.495-13.017-5.495c-5.013,0-9.351,1.832-13.015,5.495L858.982,914.509l-61.022-61.021
	c-3.663-3.663-8.001-5.495-13.014-5.495s-9.353,1.832-13.016,5.495l-29.497,29.499c-3.664,3.663-5.496,8.001-5.496,13.014
	s1.832,9.351,5.496,13.015l103.534,103.535c3.663,3.663,8.001,5.495,13.016,5.495
	C863.995,1018.045,868.333,1016.213,871.996,1012.55z M1118.109,757.182v277.639c0,22.941-8.146,42.562-24.438,58.854
	c-16.292,16.291-35.91,24.438-58.854,24.438H757.182c-22.941,0-42.562-8.146-58.853-24.438
	c-16.292-16.292-24.438-35.91-24.438-58.854V757.182c0-22.942,8.146-42.562,24.438-58.853c16.292-16.292,35.91-24.438,58.853-24.438
	h277.639c22.941,0,42.562,8.146,58.854,24.438C1109.963,714.62,1118.109,734.238,1118.109,757.182z"/>
<g id="Page-1">
	<g id="Core" transform="translate(-465.000000, -45.000000)">
		<g id="check-box" transform="translate(465.000000, 45.000000)">
			<path id="Shape" fill="#D53132" d="M389.695,7.391H54.303c-26.354,0-47.912,21.559-47.912,47.914v335.391
				c0,26.344,21.559,47.914,47.912,47.914h335.393c26.344,0,47.914-21.57,47.914-47.914V55.305
				C437.609,28.949,416.039,7.391,389.695,7.391L389.695,7.391z M174.086,342.783L54.303,223l33.537-33.537l86.246,86.246
				L356.146,93.637l33.549,33.537L174.086,342.783L174.086,342.783z"/>
		</g>
	</g>
</g>
</svg>
