<?xml version="1.0" encoding="utf-8"?>
<!-- Generator: Adobe Illustrator 13.0.0, SVG Export Plug-In . SVG Version: 6.00 Build 14948)  -->
<!DOCTYPE svg PUBLIC "-//W3C//DTD SVG 1.1//EN" "http://www.w3.org/Graphics/SVG/1.1/DTD/svg11.dtd">
<svg version="1.1" id="Layer_1" xmlns="http://www.w3.org/2000/svg" xmlns:xlink="http://www.w3.org/1999/xlink" x="0px" y="0px"
	 width="80px" height="80px" viewBox="-32 -24 80 80" enable-background="new -32 -24 80 80" xml:space="preserve">
<g id="Layer_1_1_">
</g>
<g id="question_x5F_mark">
	<g>
		<path fill="#0966A1" d="M44.6,57c0,1.102-0.895,2-2,2c-1.104,0-2-0.898-2-2c0-1.109,0.896-2,2-2C43.705,55,44.6,55.891,44.6,57z"
			/>
		<path fill="#0966A1" d="M42.027,78.977c-4.01,0-7.774-1.564-10.611-4.408c-2.837-3.318-4.398-7.082-4.398-11.094
			c0-4.01,1.561-7.773,4.398-10.119l20.076-20.074c2.267-2.275,3.516-5.289,3.516-8.49c0-3.211-1.249-6.225-3.52-8.488
			c-4.678-4.68-12.295-4.689-16.972,0c-2.275,2.263-3.523,5.274-3.523,8.488H18.986c0-6.414,2.503-12.452,7.049-16.989
			C35.1-1.273,50.904-1.264,59.982,7.814c4.535,4.523,7.033,10.552,7.033,16.978c0,6.416-2.498,12.443-7.035,16.979l-20.08,19.582
			c-1.167,1.172-1.167,3.065,0,4.244c1.174,1.172,3.072,1.172,4.246,0c0.765-0.779,0.879-1.671,0.879-2.135h12.008
			c0,4.012-1.563,7.786-4.396,11.1C49.801,77.404,46.037,78.977,42.027,78.977L42.027,78.977z"/>
	</g>
</g>
</svg>
