<?xml version="1.0" encoding="utf-8"?>
<!-- Generator: Adobe Illustrator 13.0.0, SVG Export Plug-In . SVG Version: 6.00 Build 14948)  -->
<!DOCTYPE svg PUBLIC "-//W3C//DTD SVG 1.1//EN" "http://www.w3.org/Graphics/SVG/1.1/DTD/svg11.dtd">
<svg version="1.1" id="Layer_1" xmlns="http://www.w3.org/2000/svg" xmlns:xlink="http://www.w3.org/1999/xlink" x="0px" y="0px"
	 width="1400px" height="4000px" viewBox="0 0 1400 4000" enable-background="new 0 0 1400 4000" xml:space="preserve">
<title></title>
<path fill="#0966A1" d="M1071,2131.6v-359.8c0-149.8-117.6-271.6-267.4-278.6c-7-57.4-60.199-98-117.6-91c-47.6,5.6-84,43.399-91,91
	c-149.8,7-267.4,130.2-267.4,280V2131.6l-53.2,28V2431.2l53.2,14v47.6c0,57.4,46.2,105,105,105h532c58.801,0,105-47.6,105-105v-47.6
	l53.2-14V2159.6L1071,2131.6z M329,2415.8l-25.2-7V2280H329V2415.8z M329,2252h-25.2v-75.6L329,2163.8V2252z M896,1543.6
	c9.8,4.2,19.6,9.801,28,15.4v228.2h-28V1543.6z M896,1820.8h28c1.4,0,2.8,0,4.2,1.4h1.399c1.4,1.399,2.801,1.399,2.801,2.8v1.4
	c0,1.399,1.399,2.8,1.399,4.199c0,5.601-5.6,11.2-11.2,11.2h-28c-5.6,0-11.199-5.6-11.199-11.2C883.4,1825,890.4,1820.8,896,1820.8z
	 M924,1876.8v189h-28v-189H924z M700,1428.8L700,1428.8c37.8,0,68.6,26.601,75.6,63H624.4C631.4,1455.4,663.6,1428.8,700,1428.8z
	 M532,1867c19.6-15.4,22.4-43.4,7-63c-2.8-2.8-4.2-5.6-7-7v-264.6c25.2-8.4,50.4-12.601,77-12.601h183.4c26.6,0,51.8,4.2,77,11.2
	v264.6c-19.601,15.4-22.4,43.4-7,63c2.8,2.801,4.199,5.601,7,7V2064.4H532V1867z M476,1559c8.4-5.6,18.2-11.2,28-15.4V1787.2h-28
	V1559z M476,1820.8h28c0,0,1.4,0,2.8,0c2.8,0,4.2,1.4,5.601,2.8c1.399,1.4,2.8,2.801,2.8,5.601c0,0,0,1.399,0,2.8s0,1.4,0,2.8
	c0,2.8-1.4,4.2-2.8,5.601c-1.4,1.399-2.801,2.8-5.601,2.8c0,0-1.399,0-2.8,0h-28c-5.6,0-11.2-5.601-11.2-11.2
	S470.4,1820.8,476,1820.8z M504,1876.8v189h-28v-189H504z M448,1797c-19.6,15.4-22.4,43.4-7,63c2.8,2.8,4.2,5.6,7,7v198.8h-21v301
	h-70v-593.6c0-67.2,26.6-131.601,74.2-179.2c5.6-5.6,11.2-11.2,16.8-15.4V1797z M945,2473.2H455v-288.4h25.2v39.2h28v-39.2H945
	V2473.2z M1043,2366.8h-70v-299.6h-21V1867c19.6-15.4,22.4-43.4,7-63c-2.8-2.8-4.2-5.6-7-7v-218.4c57.4,47.601,91,119,91,193.2
	V2366.8z M1094.8,2408.8l-25.2,7V2280h25.2V2408.8z M1094.8,2252h-25.2v-89.6l25.2,12.6V2252z"/>
<path fill="#0966A1" d="M791,2347.2v98h126v-98H791z M889,2417.2h-70v-42h70V2417.2z"/>
<path fill="#0966A1" d="M805,1763.4l-84-84c-14-14-35-14-49,0l-84,84c-14,14-14,35,0,49l84,84c14,14,35,14,49,0l84-84
	C819,1798.4,819,1776,805,1763.4z M683.2,1815.2c0,7-7,14-14,14s-14-7-14-14v-42c0-7,7-14,14-14s14,7,14,14V1815.2z M739.2,1815.2
	c0,7-7,14-14,14s-14-7-14-14v-42c0-7,7-14,14-14s14,7,14,14V1815.2z"/>
</svg>
