<?xml version="1.0" encoding="utf-8"?>
<!-- Generator: Adobe Illustrator 13.0.0, SVG Export Plug-In . SVG Version: 6.00 Build 14948)  -->
<!DOCTYPE svg PUBLIC "-//W3C//DTD SVG 1.1//EN" "http://www.w3.org/Graphics/SVG/1.1/DTD/svg11.dtd">
<svg version="1.1" id="Layer_1" xmlns="http://www.w3.org/2000/svg" xmlns:xlink="http://www.w3.org/1999/xlink" x="0px" y="0px"
	 width="96px" height="96px" viewBox="0 0 96 96" enable-background="new 0 0 96 96" xml:space="preserve">
<g>
	<g>
		<path fill="none" stroke="#F39237" stroke-width="2" stroke-linecap="round" stroke-linejoin="round" stroke-miterlimit="10" d="
			M66.75,69.766H71c1.104,0,2-0.896,2-2V45.762c0-1.104-0.896-2-2-2H25c-1.104,0-2,0.896-2,2v22.003c0,1.104,0.896,2,2,2h35.875"/>
		
			<circle fill="none" stroke="#F39237" stroke-width="2" stroke-linecap="round" stroke-linejoin="round" stroke-miterlimit="10" cx="48" cy="56.764" r="7.656"/>
	</g>
	<g>
		<path fill="none" stroke="#000000" stroke-width="2" stroke-linecap="round" stroke-linejoin="round" stroke-miterlimit="10" d="
			M65.896,27.593c-0.262-0.979-1.267-1.558-2.242-1.295L22.967,37.199c-0.979,0.263-1.559,1.266-1.296,2.243"/>
		<path fill="none" stroke="#F39237" stroke-width="2" stroke-linecap="round" stroke-linejoin="round" stroke-miterlimit="10" d="
			M70.23,43.766l-4.334-16.173c-0.262-0.979-1.267-1.558-2.242-1.295L22.967,37.199c-0.979,0.263-1.559,1.266-1.296,2.243L23,44.647
			"/>
		
			<line fill="none" stroke="#F39237" stroke-width="2" stroke-linecap="round" stroke-linejoin="round" stroke-miterlimit="10" x1="62.885" y1="39.66" x2="47.578" y2="43.762"/>
		
			<polyline fill="none" stroke="#F39237" stroke-width="2" stroke-linecap="round" stroke-linejoin="round" stroke-miterlimit="10" points="
			49.541,35.811 66.855,31.172 68.713,38.099 65.797,38.88 		"/>
		
			<line fill="none" stroke="#F39237" stroke-width="2" stroke-linecap="round" stroke-linejoin="round" stroke-miterlimit="10" x1="22.63" y1="43.021" x2="43.949" y2="37.31"/>
	</g>
</g>
<path fill="#F39237" d="M49.868,53.086h1.541L52,52.199h-5.79l-0.591,0.887h1.005c1.017,0,1.959,0.078,2.333,0.93H46.21
	l-0.591,0.887h3.449c0,0.005,0,0.005,0,0.005c0,0.639-0.532,1.616-2.282,1.616h-0.847v0.827l3.394,4.241h1.51l-3.509-4.383
	c1.447-0.079,2.803-0.887,2.996-2.307h1.08L52,54.016h-1.687C50.246,53.673,50.101,53.342,49.868,53.086z"/>
</svg>
