<?xml version="1.0" encoding="utf-8"?>
<!-- Generator: Adobe Illustrator 13.0.0, SVG Export Plug-In . SVG Version: 6.00 Build 14948)  -->
<!DOCTYPE svg PUBLIC "-//W3C//DTD SVG 1.1//EN" "http://www.w3.org/Graphics/SVG/1.1/DTD/svg11.dtd">
<svg version="1.1" id="Layer_1" xmlns="http://www.w3.org/2000/svg" xmlns:xlink="http://www.w3.org/1999/xlink" x="0px" y="0px"
	 width="491.52px" height="491.52px" viewBox="0 0 491.52 491.52" enable-background="new 0 0 491.52 491.52" xml:space="preserve">
<g id="Layer_x0020_1">
	<g id="_395066272">
		<rect id="_395066152" fill="none" width="491.52" height="491.52"/>
	</g>
	<path fill="none" stroke="#F39237" stroke-width="6" d="M245.76,115.199c36.052,0,68.692,14.614,92.32,38.241
		c23.626,23.627,38.24,56.268,38.24,92.32s-14.614,68.693-38.24,92.32c-23.627,23.627-56.268,38.24-92.32,38.24
		c-36.052,0-68.693-14.613-92.32-38.24s-38.241-56.268-38.241-92.32c0-36.052,14.614-68.693,38.241-92.32
		C177.067,129.813,209.708,115.199,245.76,115.199z M327.219,164.3c-20.846-20.846-49.646-33.741-81.459-33.741
		S185.146,143.454,164.3,164.3s-33.74,49.647-33.74,81.459s12.894,60.613,33.74,81.459s49.647,33.74,81.459,33.74
		s60.613-12.895,81.459-33.74c20.847-20.846,33.741-49.646,33.741-81.459S348.065,185.146,327.219,164.3z"/>
	<path fill="#F39237" d="M188.377,216.98c0-9.75,2.127-16.967,6.407-21.677c4.279-4.685,10.079-7.04,17.397-7.04
		c7.572,0,13.497,2.33,17.777,7.015c4.279,4.659,6.407,11.902,6.407,21.702c0,9.724-2.127,16.966-6.407,21.651
		c-4.28,4.71-10.079,7.04-17.397,7.04c-7.572,0-13.498-2.33-17.777-6.989C190.504,233.997,188.377,226.755,188.377,216.98
		L188.377,216.98z M204.609,216.828c0,7.065,0.836,11.826,2.457,14.231c1.241,1.798,2.938,2.685,5.115,2.685
		c2.229,0,3.95-0.887,5.191-2.685c1.596-2.406,2.381-7.166,2.381-14.231c0-7.09-0.785-11.801-2.381-14.181
		c-1.241-1.823-2.962-2.735-5.191-2.735c-2.178,0-3.875,0.886-5.115,2.659C205.445,205.002,204.609,209.738,204.609,216.828
		L204.609,216.828z M228.059,303.027h-15.422l57.939-114.764h14.991L228.059,303.027L228.059,303.027z M261.738,274.463
		c0-9.749,2.152-16.967,6.432-21.65c4.28-4.711,10.13-7.066,17.55-7.066c7.444,0,13.319,2.355,17.6,7.066
		c4.279,4.684,6.432,11.901,6.432,21.65c0,9.801-2.152,17.043-6.432,21.753c-4.28,4.685-10.079,7.04-17.397,7.04
		c-7.571,0-13.472-2.355-17.752-7.04C263.891,291.506,261.738,284.264,261.738,274.463L261.738,274.463z M277.996,274.388
		c0,7.065,0.811,11.8,2.431,14.181c1.241,1.823,2.963,2.734,5.141,2.734c2.229,0,3.925-0.886,5.116-2.658
		c1.62-2.432,2.43-7.191,2.43-14.257s-0.785-11.826-2.354-14.231c-1.241-1.799-2.962-2.685-5.191-2.685
		c-2.228,0-3.95,0.886-5.141,2.685C278.807,262.562,277.996,267.322,277.996,274.388L277.996,274.388z"/>
</g>
</svg>
