<?xml version="1.0" encoding="utf-8"?>
<!-- Generator: Adobe Illustrator 13.0.0, SVG Export Plug-In . SVG Version: 6.00 Build 14948)  -->
<!DOCTYPE svg PUBLIC "-//W3C//DTD SVG 1.1//EN" "http://www.w3.org/Graphics/SVG/1.1/DTD/svg11.dtd">
<svg version="1.1" id="Layer_1" xmlns="http://www.w3.org/2000/svg" xmlns:xlink="http://www.w3.org/1999/xlink" x="0px" y="0px"
	 width="300px" height="300px" viewBox="0 0 300 300" enable-background="new 0 0 300 300" xml:space="preserve">
<g>
	<path fill-rule="evenodd" clip-rule="evenodd" fill="none" stroke="#F39237" stroke-width="6" stroke-miterlimit="10" d="
		M266.63,113.853c-10.54-10.725-41.282-10.002-53.154-1.813l0.113,0.623c0.38,2.176-1.076,4.246-3.25,4.625
		c-2.175,0.381-4.246-1.074-4.625-3.25c-0.088-0.494-0.178-0.986-0.27-1.477c-11.418-8.973-41.232-8.734-52.838-0.344v1.133
		c0,2.209-1.791,4-4,4s-4-1.791-4-4v-1.045c-11.469-8.441-41.252-8.746-52.814,0.143c-0.1,0.527-0.195,1.059-0.291,1.59
		c-0.379,2.176-2.451,3.631-4.625,3.25c-2.174-0.379-3.629-2.449-3.25-4.625l0.1-0.553c-11.775-8.252-42.564-9.031-53.143,1.75
		c-0.1,0.271-0.199,0.545-0.298,0.818c-0.733,2.08-3.013,3.172-5.093,2.438c-2.08-0.732-3.17-3.014-2.438-5.094
		C41.214,60.214,89.656,34.979,144.608,33.35v-5.623c0-2.209,1.79-4,4-4c2.209,0,4,1.791,4,4v5.623
		c54.949,1.63,103.393,26.864,121.852,78.673c0.733,2.08-0.357,4.361-2.438,5.094c-2.079,0.734-4.359-0.357-5.092-2.438
		C266.831,114.404,266.73,114.128,266.63,113.853L266.63,113.853z"/>
</g>
<path fill="#F39237" d="M167.58,142.768h23.493l9.013-13.519h-88.264l-9.013,13.519h15.322c15.501,0,29.862,1.202,35.569,14.181
	h-41.878l-9.013,13.518h52.573c0,0.062,0,0.062,0,0.062c0,9.733-8.111,24.635-34.788,24.635h-12.918v12.616l51.733,64.652h23.012
	l-53.475-66.814c22.051-1.201,42.72-13.52,45.664-35.15h16.463l9.013-13.518H174.37C173.348,151.721,171.125,146.674,167.58,142.768
	z"/>
</svg>
